%FSLAX35Y35*%
%MOIN*%
G04 2=Kupferunten/CopperbottomL2(X.Bot)*
%ADD10C,0.00394*%
%ADD11C,0.00154*%
%ADD12C,0.00315*%
%ADD13C,0.00336*%
%ADD14C,0.00409*%
%ADD15C,0.00512*%
%ADD16C,0.00591*%
%ADD17C,0.00614*%
%ADD18C,0.00768*%
%ADD19C,0.00787*%
%ADD20C,0.00800*%
%ADD21C,0.00819*%
%ADD22C,0.00870*%
%ADD23C,0.01024*%
%ADD24C,0.01181*%
%ADD25C,0.03937*%
%ADD26C,0.05906*%
%ADD27C,0.07874*%
%AMR_28*21,1,0.05906,0.11811,0,0,0.000*%
%ADD28R_28*%
%AMOCT_29*4,1,8,0.023622,0.011811,0.011811,0.023622,-0.011811,0.023622,-0.023622,0.011811,-0.023622,-0.011811,-0.011811,-0.023622,0.011811,-0.023622,0.023622,-0.011811,0.023622,0.011811,0.000*%
%ADD29OCT_29*%
%AMOCT_30*4,1,8,0.027559,0.025591,0.013780,0.039370,-0.013780,0.039370,-0.027559,0.025591,-0.027559,-0.025591,-0.013780,-0.039370,0.013780,-0.039370,0.027559,-0.025591,0.027559,0.025591,0.000*%
%ADD30OCT_30*%
%AMOCT_31*4,1,8,0.029528,0.044291,0.014764,0.059055,-0.014764,0.059055,-0.029528,0.044291,-0.029528,-0.044291,-0.014764,-0.059055,0.014764,-0.059055,0.029528,-0.044291,0.029528,0.044291,0.000*%
%ADD31OCT_31*%
%AMOCT_32*4,1,8,0.039370,0.019685,0.019685,0.039370,-0.019685,0.039370,-0.039370,0.019685,-0.039370,-0.019685,-0.019685,-0.039370,0.019685,-0.039370,0.039370,-0.019685,0.039370,0.019685,90.000*%
%ADD32OCT_32*%
%AMOCT_33*4,1,8,0.039370,0.029528,0.019685,0.049213,-0.019685,0.049213,-0.039370,0.029528,-0.039370,-0.029528,-0.019685,-0.049213,0.019685,-0.049213,0.039370,-0.029528,0.039370,0.029528,0.000*%
%ADD33OCT_33*%
%AMOCT_34*4,1,8,0.039370,0.039370,0.019685,0.059055,-0.019685,0.059055,-0.039370,0.039370,-0.039370,-0.039370,-0.019685,-0.059055,0.019685,-0.059055,0.039370,-0.039370,0.039370,0.039370,0.000*%
%ADD34OCT_34*%
%AMOCT_35*4,1,8,0.039370,0.039370,0.019685,0.059055,-0.019685,0.059055,-0.039370,0.039370,-0.039370,-0.039370,-0.019685,-0.059055,0.019685,-0.059055,0.039370,-0.039370,0.039370,0.039370,90.000*%
%ADD35OCT_35*%
%AMOCT_36*4,1,8,0.039370,0.039370,0.019685,0.059055,-0.019685,0.059055,-0.039370,0.039370,-0.039370,-0.039370,-0.019685,-0.059055,0.019685,-0.059055,0.039370,-0.039370,0.039370,0.039370,270.000*%
%ADD36OCT_36*%
%AMOCT_37*4,1,8,0.041339,0.020669,0.020669,0.041339,-0.020669,0.041339,-0.041339,0.020669,-0.041339,-0.020669,-0.020669,-0.041339,0.020669,-0.041339,0.041339,-0.020669,0.041339,0.020669,90.000*%
%ADD37OCT_37*%
%AMOCT_38*4,1,8,0.041339,0.020669,0.020669,0.041339,-0.020669,0.041339,-0.041339,0.020669,-0.041339,-0.020669,-0.020669,-0.041339,0.020669,-0.041339,0.041339,-0.020669,0.041339,0.020669,180.000*%
%ADD38OCT_38*%
%AMOCT_39*4,1,8,0.049213,0.024606,0.024606,0.049213,-0.024606,0.049213,-0.049213,0.024606,-0.049213,-0.024606,-0.024606,-0.049213,0.024606,-0.049213,0.049213,-0.024606,0.049213,0.024606,0.000*%
%ADD39OCT_39*%
%AMOCT_40*4,1,8,0.049213,0.024606,0.024606,0.049213,-0.024606,0.049213,-0.049213,0.024606,-0.049213,-0.024606,-0.024606,-0.049213,0.024606,-0.049213,0.049213,-0.024606,0.049213,0.024606,180.000*%
%ADD40OCT_40*%
%AMOCT_41*4,1,8,0.059055,0.029528,0.029528,0.059055,-0.029528,0.059055,-0.059055,0.029528,-0.059055,-0.029528,-0.029528,-0.059055,0.029528,-0.059055,0.059055,-0.029528,0.059055,0.029528,0.000*%
%ADD41OCT_41*%
%AMOCT_42*4,1,8,0.059055,0.029528,0.029528,0.059055,-0.029528,0.059055,-0.059055,0.029528,-0.059055,-0.029528,-0.029528,-0.059055,0.029528,-0.059055,0.059055,-0.029528,0.059055,0.029528,180.000*%
%ADD42OCT_42*%
%AMOCT_43*4,1,8,0.078740,0.039370,0.039370,0.078740,-0.039370,0.078740,-0.078740,0.039370,-0.078740,-0.039370,-0.039370,-0.078740,0.039370,-0.078740,0.078740,-0.039370,0.078740,0.039370,90.000*%
%ADD43OCT_43*%
%ADD44O,0.05906X0.11811*%
%ADD45O,0.07874X0.11811*%
%AMELL_46*4,1,16,0.03937,0.00000,0.03637,0.02260,0.02784,0.04176,0.01507,0.05456,0.00000,0.05906,-0.01507,0.05456,-0.02784,0.04176,-0.03637,0.02260,-0.03937,0.00000,-0.03637,-0.02260,-0.02784,-0.04176,-0.01507,-0.05456,0.00000,-0.05906,0.01507,-0.05456,0.02784,-0.04176,0.03637,-0.02260,0.03937,0.00000,0.000*%
%ADD46ELL_46*%
%AMELL_47*4,1,16,0.03937,0.00000,0.03637,0.02260,0.02784,0.04176,0.01507,0.05456,0.00000,0.05906,-0.01507,0.05456,-0.02784,0.04176,-0.03637,0.02260,-0.03937,0.00000,-0.03637,-0.02260,-0.02784,-0.04176,-0.01507,-0.05456,0.00000,-0.05906,0.01507,-0.05456,0.02784,-0.04176,0.03637,-0.02260,0.03937,0.00000,270.000*%
%ADD47ELL_47*%
%AMRR_48*21,1,0.07874,0.08268,0,0,0.000*21,1,0.06299,0.09843,0,0,0.000*1,1,0.01575,0.03150,0.04134*1,1,0.01575,-0.03150,-0.04134*1,1,0.01575,0.03150,-0.04134*1,1,0.01575,-0.03150,0.04134*%
%ADD48RR_48*%
G54D25*
X151830Y69671D02*
X145993Y63834D01*
X59330Y73817D02*
X66765Y81252D01*
X109330Y72500D02*
X117996Y63834D01*
X109330Y73773D02*
X101851Y81252D01*
X145993Y63834D02*
X117996Y63834D01*
X66765Y81252D02*
X101851Y81252D01*
X151830Y69671D02*
X151830Y72500D01*
X59330Y73817D02*
X59330Y72500D01*
X109330Y72500D02*
X109330Y73773D01*
X46867Y255842D02*
X46867Y258627D01*
X419279Y101010D02*
X419279Y99682D01*
X65028Y199746D02*
X87523Y222241D01*
X53543Y130000D02*
X48542Y130000D01*
X31836Y199746D03*
X197234Y222241D03*
X87523Y222241D02*
X219734Y222241D01*
X53543Y130000D02*
X136830Y130000D01*
X141830Y72500D02*
X141830Y102500D01*
X39330Y120000D02*
X39330Y120788D01*
X53543Y130000D02*
X136830Y130000D01*
X139330Y127500D01*
X48542Y130000D02*
X39330Y120788D01*
X139330Y127500D02*
X144330Y127500D01*
X31836Y199746D02*
X65028Y199746D01*
X334257Y62501D02*
X319929Y48173D01*
X319929Y46892D01*
X334257Y62501D02*
X404798Y62501D01*
X339929Y46892D02*
X340536Y47500D01*
X409330Y47500D01*
X414641Y52810D02*
X414641Y62501D01*
X409330Y47500D02*
X414330Y52500D01*
X22319Y139221D02*
X24244Y137296D01*
X34417Y137296D02*
X24244Y137296D01*
X143622Y50350D02*
X136151Y57820D01*
X143622Y27951D02*
X158995Y12577D01*
X241752Y15669D02*
X238660Y12577D01*
X39330Y142209D02*
X34417Y137296D01*
X136608Y57937D03*
X143622Y50350D02*
X143622Y27951D01*
X22319Y139221D02*
X22319Y183129D01*
X241752Y18716D02*
X241752Y15669D01*
X39330Y145000D02*
X39330Y142209D01*
X158995Y12577D02*
X238660Y12577D01*
X21830Y183617D02*
X21830Y235000D01*
X21830Y183617D02*
X22319Y183129D01*
X21830Y235000D02*
X36867Y250036D01*
X36867Y255842D01*
X269929Y46892D02*
X241752Y18716D01*
X130648Y125000D02*
X151830Y103817D01*
X174330Y127500D02*
X151830Y105000D01*
X174330Y127500D02*
X146867Y154963D01*
X146867Y164144D01*
X151830Y105000D02*
X151830Y103817D01*
X151830Y102500D01*
X151830Y103817D02*
X151830Y102500D01*
X146867Y165842D02*
X146867Y164144D01*
X49330Y102500D02*
X49330Y107500D01*
X48730Y107500D02*
X49330Y107500D01*
X66230Y125000D02*
X48730Y107500D01*
X66230Y125000D02*
X130648Y125000D01*
X106830Y119724D02*
X75524Y119724D01*
X106830Y119724D03*
X106830Y119724D01*
X59330Y102500D02*
X59330Y103530D01*
X75524Y119724D02*
X59330Y103530D01*
X59330Y42500D02*
X69330Y52500D01*
X69330Y72500D02*
X69330Y52500D01*
X59330Y32500D02*
X59330Y42500D01*
X69330Y41594D02*
X75236Y47500D01*
X75236Y63444D02*
X75236Y47500D01*
X69330Y32500D02*
X69330Y41594D01*
X75236Y63444D02*
X79330Y67539D01*
X79330Y72500D01*
X79330Y40188D02*
X89330Y50188D01*
X89330Y55275D01*
X89330Y72500D02*
X89330Y55275D01*
X79330Y32500D02*
X79330Y40188D01*
X89330Y39913D02*
X95236Y45818D01*
X95236Y63444D02*
X95236Y45818D01*
X89330Y32500D02*
X89330Y39913D01*
X95236Y63444D02*
X99330Y67539D01*
X99330Y72500D01*
X99330Y32500D02*
X99330Y31669D01*
X113228Y86279D02*
X121830Y77677D01*
X89330Y101232D02*
X104283Y86279D01*
X121830Y77677D03*
X113228Y86279D02*
X104283Y86279D01*
X89330Y102500D02*
X89330Y101232D01*
X29330Y75256D02*
X47518Y93444D01*
X71593Y93444D02*
X79330Y101182D01*
X47518Y93444D02*
X71593Y93444D01*
X79330Y101182D02*
X79330Y101182D01*
X129330Y32500D02*
X129330Y33330D01*
X29330Y49743D02*
X54251Y24822D01*
X122441Y24822D01*
X129330Y31711D02*
X129330Y33330D01*
X79330Y101182D02*
X79330Y102500D01*
X122441Y24822D02*
X129330Y31711D01*
X29330Y75256D02*
X29330Y49743D01*
X34212Y264701D02*
X17220Y247710D01*
X219992Y212500D02*
X221730Y212500D01*
X219992Y212500D02*
X219734Y212241D01*
X231752Y223471D02*
X229330Y221049D01*
X231752Y223471D02*
X231752Y257038D01*
X224090Y264701D01*
X34212Y264701D01*
X22286Y132571D02*
X44401Y132571D01*
X46830Y135000D02*
X44401Y132571D01*
X46830Y135000D02*
X77538Y135000D01*
X106867Y164328D01*
X106867Y165842D01*
X17220Y137637D02*
X22286Y132571D01*
X17220Y137637D02*
X17220Y181546D01*
X17106Y181660D01*
X17106Y236956D01*
X17220Y237071D01*
X17220Y247710D01*
X229330Y220100D02*
X221730Y212500D01*
X229330Y221049D02*
X229330Y220100D01*
X219734Y202241D02*
X214258Y202241D01*
X136867Y165842D02*
X136867Y167546D01*
X189516Y177241D02*
X187266Y179492D01*
X76867Y167541D02*
X88817Y179492D01*
X187266Y179492D02*
X88817Y179492D01*
X207822Y177241D02*
X208080Y177500D01*
X76867Y165842D02*
X76867Y167541D01*
X208080Y177500D02*
X213339Y172241D01*
X219734Y172241D01*
X207822Y177241D02*
X189516Y177241D01*
X168158Y153036D02*
X156867Y164328D01*
X156867Y165842D02*
X156867Y164328D01*
X168158Y153036D02*
X193793Y153036D01*
X279929Y63151D02*
X279929Y46892D01*
X237198Y143750D02*
X203080Y143750D01*
X237198Y143750D02*
X259330Y121617D01*
X259330Y83750D01*
X279929Y63151D01*
X193793Y153036D02*
X203080Y143750D01*
X171830Y72500D02*
X171830Y73750D01*
X321578Y260000D02*
X321578Y260000D01*
X9330Y127243D02*
X24251Y112322D01*
X381830Y252500D02*
X374330Y260000D01*
X261830Y260000D02*
X271024Y260000D01*
X49330Y119175D02*
X42476Y112322D01*
X9330Y192929D02*
X9330Y127243D01*
X271024Y260000D02*
X321578Y260000D01*
X374330Y260000D01*
X24251Y112322D02*
X42476Y112322D01*
X261830Y250000D02*
X261830Y260000D01*
X49330Y120000D02*
X49330Y119175D01*
X9330Y192929D02*
X9330Y247500D01*
X9330Y192929D02*
X9330Y192929D01*
X9330Y247500D02*
X34330Y272500D01*
X251830Y272500D01*
X261830Y262500D02*
X251830Y272500D01*
X261830Y262500D02*
X261830Y250000D01*
X151830Y37500D02*
X181830Y67500D01*
X181830Y72500D02*
X181830Y67500D01*
X151830Y32500D02*
X151830Y37500D01*
X161830Y35000D02*
X191830Y64999D01*
X191830Y70040D02*
X191830Y64999D01*
X191830Y70040D02*
X191830Y72500D01*
X161830Y32500D02*
X161830Y35000D01*
X171830Y32500D02*
X171830Y33359D01*
X198139Y131309D02*
X181830Y115000D01*
X227924Y138563D03*
X181830Y115000D02*
X181830Y102500D01*
X198139Y131309D02*
X220670Y131309D01*
X227924Y138563D01*
X191830Y102500D02*
X191830Y103828D01*
X236830Y17499D03*
X237109Y42220D03*
X236830Y17499D02*
X236830Y41941D01*
X237109Y42220D01*
X229330Y102066D02*
X229330Y29211D01*
X229330Y102066D02*
X228897Y102500D01*
X188720Y24822D02*
X181830Y31711D01*
X224941Y24822D02*
X188720Y24822D01*
X181830Y31711D02*
X181830Y32500D01*
X229330Y29211D02*
X224941Y24822D01*
X211830Y102500D02*
X228897Y102500D01*
X239330Y262500D02*
X236830Y265000D01*
X239330Y180000D02*
X249330Y170000D01*
X239330Y262500D02*
X239330Y180000D01*
X443080Y217500D02*
X443080Y197500D01*
X454330Y186250D01*
G54D27*
X337311Y30730D02*
X406743Y30730D01*
X221830Y32500D02*
X221830Y43562D01*
X211830Y53562D02*
X221830Y43562D01*
X381830Y195000D02*
X381830Y242500D01*
X211830Y72500D02*
X211830Y53562D01*
X376012Y189181D02*
X381830Y195000D01*
X376012Y91681D02*
X376012Y189181D01*
X376012Y91681D02*
X393900Y109569D01*
X427838Y109569D01*
X337311Y30730D02*
X329929Y38112D01*
X389668Y78025D02*
X376012Y91681D01*
X426538Y74178D02*
X422691Y78025D01*
X329929Y38112D02*
X329929Y46892D01*
X422691Y78025D02*
X389668Y78025D01*
X426538Y74178D02*
X426538Y50524D01*
X406743Y30730D02*
X426538Y50524D01*
X427838Y109569D02*
X427226Y110182D01*
X376012Y189181D02*
X369330Y182500D01*
X301830Y182500D01*
X276830Y207500D01*
X276830Y217500D01*
X419279Y101010D02*
X427838Y109569D01*
X427226Y140090D02*
X464961Y177825D01*
X464961Y198119D02*
X463080Y200000D01*
X427226Y110182D02*
X427226Y140090D01*
X464961Y198119D02*
X464961Y177825D01*
X463080Y200000D02*
X463080Y217500D01*
X423080Y217500D02*
X423080Y205000D01*
X404330Y186250D01*
X269929Y46892D02*
X269929Y21901D01*
X271830Y20000D01*
X419330Y20000D01*
X449330Y50000D01*
X449330Y140000D01*
X251830Y245589D02*
X251830Y250000D01*
X275688Y239425D02*
X257994Y239425D01*
X251830Y245589D01*
X275688Y239425D02*
X281830Y245567D01*
X281830Y250000D01*
G54D28*
X39330Y72500D03*
X141830Y72500D03*
G54D29*
X236830Y265000D03*
G54D30*
X299330Y247500D03*
X306830Y247500D03*
X314330Y247500D03*
G54D31*
X269929Y46892D03*
X339929Y116892D03*
X279929Y46892D03*
X329929Y116892D03*
X289929Y46892D03*
X319929Y116892D03*
X299929Y46892D03*
X309929Y116892D03*
X309929Y46892D03*
X299929Y116892D03*
X319929Y46892D03*
X289929Y116892D03*
X329929Y46892D03*
X279929Y116892D03*
X339929Y46892D03*
X269929Y116892D03*
G54D32*
X369330Y21250D03*
X369330Y31250D03*
G54D33*
X39330Y145000D03*
X49330Y145000D03*
X39330Y120000D03*
X49330Y120000D03*
X161830Y32500D03*
X171830Y32500D03*
X181830Y32500D03*
X191830Y32500D03*
X201830Y32500D03*
X211830Y32500D03*
X221830Y32500D03*
G54D34*
X252077Y250056D03*
X261920Y250056D03*
X271762Y250056D03*
X281605Y250056D03*
G54D35*
X144330Y145000D03*
X174330Y145000D03*
X144330Y127500D03*
X174330Y127500D03*
X276830Y217500D03*
X306830Y217500D03*
X325821Y225065D03*
X355821Y225065D03*
X311830Y195000D03*
X341830Y195000D03*
G54D36*
X381830Y252500D03*
X381830Y242500D03*
X349330Y252500D03*
X349330Y242500D03*
G54D37*
X419279Y89840D03*
X419279Y99682D03*
G54D38*
X414641Y62501D03*
X404798Y62501D03*
G54D39*
X249330Y200000D03*
X249330Y170000D03*
G54D40*
X269330Y170000D03*
X269330Y200000D03*
G54D41*
X251830Y220000D03*
G54D42*
X310722Y160342D03*
X449330Y140000D03*
X426830Y140000D03*
X454330Y186250D03*
X404330Y186250D03*
G54D43*
X403080Y217500D03*
X423080Y217500D03*
X443080Y217500D03*
X463080Y217500D03*
G54D44*
X49330Y72500D03*
X59330Y72500D03*
X69330Y72500D03*
X79330Y72500D03*
X89330Y72500D03*
X99330Y72500D03*
X109330Y72500D03*
X109330Y102500D03*
X99330Y102500D03*
X89330Y102500D03*
X79330Y102500D03*
X69330Y102500D03*
X59330Y102500D03*
X49330Y102500D03*
X39330Y102500D03*
X151830Y72500D03*
X161830Y72500D03*
X171830Y72500D03*
X181830Y72500D03*
X191830Y72500D03*
X201830Y72500D03*
X211830Y72500D03*
X211830Y102500D03*
X201830Y102500D03*
X191830Y102500D03*
X181830Y102500D03*
X171830Y102500D03*
X161830Y102500D03*
X151830Y102500D03*
X141830Y102500D03*
G54D45*
X176867Y255842D03*
X166867Y255842D03*
X156867Y255842D03*
X146867Y255842D03*
X136867Y255842D03*
X126867Y255842D03*
X116867Y255842D03*
X106867Y255842D03*
X96867Y255842D03*
X86867Y255842D03*
X76867Y255842D03*
X66867Y255842D03*
X56867Y255842D03*
X46867Y255842D03*
X36867Y255842D03*
X176867Y165842D03*
X166867Y165842D03*
X156867Y165842D03*
X146867Y165842D03*
X136867Y165842D03*
X126867Y165842D03*
X116867Y165842D03*
X106867Y165842D03*
X96867Y165842D03*
X86867Y165842D03*
X76867Y165842D03*
X66867Y165842D03*
X56867Y165842D03*
X46867Y165842D03*
X36867Y165842D03*
G54D46*
X58468Y33798D03*
X68468Y33798D03*
X78468Y33798D03*
X88468Y33798D03*
X98468Y33798D03*
X108468Y33798D03*
X118468Y33798D03*
X128468Y33798D03*
G54D47*
X219330Y231614D03*
X219330Y221614D03*
X219330Y211614D03*
X219330Y201614D03*
X219330Y191614D03*
X219330Y181614D03*
X219330Y171614D03*
X219330Y161614D03*
G54D48*
X29330Y145000D03*
X29330Y120000D03*
X151830Y32500D03*
M02*
