%FSLAX35Y35*%
%MOIN*%
G04 16=Kupferoben/CoppertopL1(X.Top)*
%ADD10C,0.00394*%
%ADD11C,0.00154*%
%ADD12C,0.00315*%
%ADD13C,0.00336*%
%ADD14C,0.00409*%
%ADD15C,0.00512*%
%ADD16C,0.00591*%
%ADD17C,0.00614*%
%ADD18C,0.00768*%
%ADD19C,0.00787*%
%ADD20C,0.00800*%
%ADD21C,0.00819*%
%ADD22C,0.00870*%
%ADD23C,0.01024*%
%ADD24C,0.01181*%
%ADD25C,0.03937*%
%ADD26C,0.05906*%
%ADD27C,0.07874*%
%AMR_28*21,1,0.05906,0.11811,0,0,0.000*%
%ADD28R_28*%
%AMOCT_29*4,1,8,0.023622,0.011811,0.011811,0.023622,-0.011811,0.023622,-0.023622,0.011811,-0.023622,-0.011811,-0.011811,-0.023622,0.011811,-0.023622,0.023622,-0.011811,0.023622,0.011811,0.000*%
%ADD29OCT_29*%
%AMOCT_30*4,1,8,0.027559,0.025591,0.013780,0.039370,-0.013780,0.039370,-0.027559,0.025591,-0.027559,-0.025591,-0.013780,-0.039370,0.013780,-0.039370,0.027559,-0.025591,0.027559,0.025591,0.000*%
%ADD30OCT_30*%
%AMOCT_31*4,1,8,0.029528,0.044291,0.014764,0.059055,-0.014764,0.059055,-0.029528,0.044291,-0.029528,-0.044291,-0.014764,-0.059055,0.014764,-0.059055,0.029528,-0.044291,0.029528,0.044291,0.000*%
%ADD31OCT_31*%
%AMOCT_32*4,1,8,0.039370,0.019685,0.019685,0.039370,-0.019685,0.039370,-0.039370,0.019685,-0.039370,-0.019685,-0.019685,-0.039370,0.019685,-0.039370,0.039370,-0.019685,0.039370,0.019685,0.000*%
%ADD32OCT_32*%
%AMOCT_33*4,1,8,0.039370,0.019685,0.019685,0.039370,-0.019685,0.039370,-0.039370,0.019685,-0.039370,-0.019685,-0.019685,-0.039370,0.019685,-0.039370,0.039370,-0.019685,0.039370,0.019685,90.000*%
%ADD33OCT_33*%
%AMOCT_34*4,1,8,0.039370,0.029528,0.019685,0.049213,-0.019685,0.049213,-0.039370,0.029528,-0.039370,-0.029528,-0.019685,-0.049213,0.019685,-0.049213,0.039370,-0.029528,0.039370,0.029528,0.000*%
%ADD34OCT_34*%
%AMOCT_35*4,1,8,0.039370,0.039370,0.019685,0.059055,-0.019685,0.059055,-0.039370,0.039370,-0.039370,-0.039370,-0.019685,-0.059055,0.019685,-0.059055,0.039370,-0.039370,0.039370,0.039370,0.000*%
%ADD35OCT_35*%
%AMOCT_36*4,1,8,0.039370,0.039370,0.019685,0.059055,-0.019685,0.059055,-0.039370,0.039370,-0.039370,-0.039370,-0.019685,-0.059055,0.019685,-0.059055,0.039370,-0.039370,0.039370,0.039370,90.000*%
%ADD36OCT_36*%
%AMOCT_37*4,1,8,0.039370,0.039370,0.019685,0.059055,-0.019685,0.059055,-0.039370,0.039370,-0.039370,-0.039370,-0.019685,-0.059055,0.019685,-0.059055,0.039370,-0.039370,0.039370,0.039370,270.000*%
%ADD37OCT_37*%
%AMOCT_38*4,1,8,0.041339,0.020669,0.020669,0.041339,-0.020669,0.041339,-0.041339,0.020669,-0.041339,-0.020669,-0.020669,-0.041339,0.020669,-0.041339,0.041339,-0.020669,0.041339,0.020669,90.000*%
%ADD38OCT_38*%
%AMOCT_39*4,1,8,0.041339,0.020669,0.020669,0.041339,-0.020669,0.041339,-0.041339,0.020669,-0.041339,-0.020669,-0.020669,-0.041339,0.020669,-0.041339,0.041339,-0.020669,0.041339,0.020669,180.000*%
%ADD39OCT_39*%
%AMOCT_40*4,1,8,0.049213,0.024606,0.024606,0.049213,-0.024606,0.049213,-0.049213,0.024606,-0.049213,-0.024606,-0.024606,-0.049213,0.024606,-0.049213,0.049213,-0.024606,0.049213,0.024606,0.000*%
%ADD40OCT_40*%
%AMOCT_41*4,1,8,0.049213,0.024606,0.024606,0.049213,-0.024606,0.049213,-0.049213,0.024606,-0.049213,-0.024606,-0.024606,-0.049213,0.024606,-0.049213,0.049213,-0.024606,0.049213,0.024606,180.000*%
%ADD41OCT_41*%
%AMOCT_42*4,1,8,0.059055,0.029528,0.029528,0.059055,-0.029528,0.059055,-0.059055,0.029528,-0.059055,-0.029528,-0.029528,-0.059055,0.029528,-0.059055,0.059055,-0.029528,0.059055,0.029528,0.000*%
%ADD42OCT_42*%
%AMOCT_43*4,1,8,0.059055,0.029528,0.029528,0.059055,-0.029528,0.059055,-0.059055,0.029528,-0.059055,-0.029528,-0.029528,-0.059055,0.029528,-0.059055,0.059055,-0.029528,0.059055,0.029528,180.000*%
%ADD43OCT_43*%
%AMOCT_44*4,1,8,0.078740,0.039370,0.039370,0.078740,-0.039370,0.078740,-0.078740,0.039370,-0.078740,-0.039370,-0.039370,-0.078740,0.039370,-0.078740,0.078740,-0.039370,0.078740,0.039370,90.000*%
%ADD44OCT_44*%
%ADD45O,0.05906X0.11811*%
%ADD46O,0.07874X0.11811*%
%AMELL_47*4,1,16,0.03937,0.00000,0.03637,0.02260,0.02784,0.04176,0.01507,0.05456,0.00000,0.05906,-0.01507,0.05456,-0.02784,0.04176,-0.03637,0.02260,-0.03937,0.00000,-0.03637,-0.02260,-0.02784,-0.04176,-0.01507,-0.05456,0.00000,-0.05906,0.01507,-0.05456,0.02784,-0.04176,0.03637,-0.02260,0.03937,0.00000,0.000*%
%ADD47ELL_47*%
%AMELL_48*4,1,16,0.03937,0.00000,0.03637,0.02260,0.02784,0.04176,0.01507,0.05456,0.00000,0.05906,-0.01507,0.05456,-0.02784,0.04176,-0.03637,0.02260,-0.03937,0.00000,-0.03637,-0.02260,-0.02784,-0.04176,-0.01507,-0.05456,0.00000,-0.05906,0.01507,-0.05456,0.02784,-0.04176,0.03637,-0.02260,0.03937,0.00000,270.000*%
%ADD48ELL_48*%
%AMRR_49*21,1,0.07874,0.08268,0,0,0.000*21,1,0.06299,0.09843,0,0,0.000*1,1,0.01575,0.03150,0.04134*1,1,0.01575,-0.03150,-0.04134*1,1,0.01575,0.03150,-0.04134*1,1,0.01575,-0.03150,0.04134*%
%ADD49RR_49*%
G54D25*
X9375Y182203D02*
X9330Y182247D01*
X9375Y240022D02*
X34099Y264747D01*
X211830Y73817D02*
X204395Y81252D01*
X161830Y73817D02*
X169265Y81252D01*
X349330Y242500D02*
X349565Y242734D01*
X39330Y72500D02*
X9330Y102500D01*
X9330Y108055D02*
X9330Y182247D01*
X9375Y182203D02*
X9375Y240022D01*
X9330Y108055D02*
X9330Y102500D01*
X40747Y264747D02*
X34099Y264747D01*
X204395Y81252D02*
X169265Y81252D01*
X211830Y73817D02*
X211830Y72500D01*
X161830Y73817D02*
X161830Y72500D01*
X276830Y217500D02*
X276830Y217500D01*
X151830Y72500D02*
X161830Y72500D01*
X49330Y72500D02*
X59330Y72500D01*
X39330Y72500D02*
X49330Y72500D01*
X40999Y265000D02*
X44330Y265000D01*
X40999Y265000D02*
X40747Y264747D01*
X44330Y265000D02*
X46867Y262463D01*
X46867Y255842D01*
X329929Y40598D02*
X329929Y46892D01*
X269330Y200000D02*
X269330Y210000D01*
X276830Y217500D01*
X219734Y162241D02*
X217189Y162241D01*
X197234Y182196D01*
X141830Y125000D02*
X144330Y127500D01*
X31836Y199746D03*
X17518Y185428D01*
X197234Y222241D03*
X197234Y182196D01*
X144330Y145000D02*
X144330Y127500D01*
X141830Y102500D02*
X141830Y125000D01*
X39330Y117243D02*
X39330Y120000D01*
X17518Y119054D02*
X24251Y112322D01*
X17518Y119054D02*
X17518Y185428D01*
X24251Y112322D02*
X34409Y112322D01*
X39330Y107400D01*
X39330Y102500D01*
X34409Y112322D02*
X39330Y117243D01*
X71043Y112500D02*
X39330Y144212D01*
X136608Y57937D03*
X39330Y145000D02*
X39330Y144212D01*
X122030Y112500D02*
X71043Y112500D01*
X136608Y57937D02*
X131830Y62715D01*
X131830Y102500D02*
X131830Y62715D01*
X131830Y102500D02*
X122030Y112300D01*
X122030Y112500D01*
X49330Y102500D02*
X49330Y103804D01*
X131609Y144080D02*
X139252Y151723D01*
X174330Y145000D02*
X167607Y151723D01*
X161830Y132500D02*
X174330Y145000D01*
X106867Y144080D02*
X106830Y144043D01*
X106830Y119724D03*
X106867Y144080D02*
X131609Y144080D01*
X106867Y149080D02*
X106867Y144080D01*
X139252Y151723D02*
X167607Y151723D01*
X161830Y102500D02*
X161830Y132500D01*
X106867Y149080D02*
X96867Y159080D01*
X96867Y165842D01*
X106830Y144043D02*
X106830Y120000D01*
X136024Y45806D02*
X136024Y28405D01*
X132441Y24822D01*
X105931Y24822D01*
X99330Y31422D01*
X99330Y32500D01*
X130142Y51687D02*
X136024Y45806D01*
X111830Y102500D02*
X109330Y102500D01*
X130142Y51687D02*
X130142Y57721D01*
X127106Y60758D01*
X127106Y87224D01*
X111830Y102500D01*
X115252Y85260D02*
X99330Y101182D01*
X109330Y54695D02*
X115252Y60616D01*
X115252Y85260D01*
X99330Y101182D02*
X99330Y102500D01*
X109330Y32500D02*
X109330Y54695D01*
X121830Y77677D02*
X121830Y77677D01*
X119330Y32500D02*
X119330Y45000D01*
X121830Y77677D03*
X121830Y47500D01*
X119330Y45000D01*
X86867Y165842D02*
X86867Y185842D01*
X131024Y230000D01*
X201830Y230000D01*
X204330Y227500D01*
X204330Y205000D01*
X207089Y202241D01*
X219734Y202241D01*
X177709Y165000D02*
X194330Y165000D01*
X177709Y165000D02*
X176867Y165842D01*
X211282Y148047D02*
X194330Y165000D01*
X228829Y148047D02*
X211282Y148047D01*
X237412Y156631D02*
X228829Y148047D01*
X237412Y156631D02*
X237412Y175351D01*
X220522Y192241D02*
X219734Y192241D01*
X237412Y175351D02*
X220522Y192241D01*
X136830Y165879D02*
X136830Y172500D01*
X136830Y165879D02*
X136867Y165842D01*
X146572Y182241D02*
X136830Y172500D01*
X185839Y182241D02*
X146572Y182241D01*
X222089Y182241D02*
X229330Y175000D01*
X222089Y182241D02*
X219734Y182241D01*
X229330Y158750D02*
X229330Y175000D01*
X224490Y153909D02*
X229330Y158750D01*
X214171Y153909D02*
X224490Y153909D01*
X214171Y153909D02*
X185839Y182241D01*
X219734Y172241D02*
X218248Y172241D01*
X182142Y156447D02*
X209642Y128947D01*
X166867Y164154D02*
X174573Y156447D01*
X182142Y156447D01*
X254442Y110000D02*
X289929Y74512D01*
X166867Y165842D02*
X166867Y164154D01*
X209330Y128635D02*
X209642Y128947D01*
X209330Y128635D02*
X227966Y110000D01*
X254442Y110000D02*
X227966Y110000D01*
X289929Y74512D02*
X289929Y46892D01*
X251830Y250000D02*
X251830Y250830D01*
X271830Y259936D02*
X271830Y237596D01*
X341893Y259936D02*
X349330Y252500D01*
X271830Y259936D02*
X341893Y259936D01*
X49330Y145000D02*
X49330Y152500D01*
X46830Y155000D02*
X49330Y152500D01*
X33695Y155000D02*
X46830Y155000D01*
X27476Y161218D02*
X33695Y155000D01*
X27476Y161218D02*
X27476Y167965D01*
X97010Y237500D01*
X206830Y237500D02*
X208265Y238935D01*
X232895Y238935D01*
X234233Y237596D01*
X271830Y237596D02*
X234233Y237596D01*
X97010Y237500D02*
X206830Y237500D01*
X22244Y173872D02*
X59367Y210995D01*
X22636Y126693D02*
X29330Y120000D01*
X59367Y226704D02*
X59367Y226704D01*
X59367Y230036D01*
X76867Y247536D02*
X76867Y255842D01*
X59367Y210995D02*
X59367Y226704D01*
X59367Y230036D02*
X76867Y247536D01*
X22636Y126693D02*
X22636Y154193D01*
X22244Y173872D02*
X22244Y153800D01*
X22636Y154193D01*
X219734Y232241D02*
X219992Y232500D01*
X258080Y232500D02*
X261830Y228750D01*
X261830Y210000D01*
X259330Y207500D01*
X259330Y193750D01*
X263080Y190000D01*
X286830Y190000D01*
X299330Y202500D02*
X286830Y190000D01*
X326830Y190000D02*
X335580Y181250D01*
X366830Y181250D01*
X403080Y217500D01*
X299330Y202500D02*
X320149Y202500D01*
X326830Y195818D01*
X326830Y190000D01*
X219992Y232500D02*
X258080Y232500D01*
X306830Y217469D02*
X306830Y217438D01*
X171830Y67500D02*
X171830Y72500D01*
X143080Y56250D02*
X142673Y55842D01*
X142673Y28900D02*
X158995Y12577D01*
X336793Y12577D02*
X158995Y12577D01*
X394330Y70115D02*
X336793Y12577D01*
X394330Y70115D02*
X394330Y150716D01*
X340580Y211250D02*
X346820Y217489D01*
X348070Y217489D02*
X355646Y225065D01*
X341830Y195000D02*
X340580Y196250D01*
X355821Y225065D02*
X358887Y228130D01*
X473711Y222578D02*
X463434Y232856D01*
X473711Y189576D02*
X473711Y222578D01*
X473711Y189576D02*
X450384Y166250D01*
X409864Y166250D01*
X394330Y150716D01*
X309330Y217500D02*
X306830Y217500D01*
X340580Y211250D02*
X340580Y196250D01*
X143080Y56250D02*
X160580Y56250D01*
X309330Y217500D02*
X314330Y212500D01*
X336830Y212500D02*
X338080Y211250D01*
X390581Y232856D02*
X385856Y228130D01*
X358887Y228130D01*
X463434Y232856D02*
X390581Y232856D01*
X346820Y217489D02*
X348070Y217489D01*
X355646Y225065D02*
X355821Y225065D01*
X306830Y217438D02*
X306861Y217469D01*
X306830Y217469D01*
X338080Y211250D02*
X340580Y211250D01*
X314330Y212500D02*
X336830Y212500D01*
X160580Y56250D02*
X171830Y67500D01*
X142673Y55842D02*
X142673Y28900D01*
X201830Y55275D02*
X196555Y49999D01*
X201830Y72500D02*
X201830Y55275D01*
X171830Y32500D02*
X171830Y40000D01*
X181830Y49999D01*
X196555Y49999D01*
X211830Y31697D02*
X218705Y24822D01*
X227924Y138563D03*
X337354Y24822D02*
X218705Y24822D01*
X211830Y32500D02*
X211830Y31697D01*
X364816Y52284D02*
X337354Y24822D01*
X364816Y120393D02*
X364816Y52284D01*
X346431Y138778D02*
X269390Y138778D01*
X346431Y138778D02*
X364816Y120393D01*
X269390Y138778D02*
X269174Y138563D01*
X227924Y138563D01*
X201830Y46428D02*
X217737Y62334D01*
X201830Y32500D02*
X201830Y46428D01*
X208081Y87500D02*
X217737Y77844D01*
X217737Y62334D01*
X191830Y101249D02*
X191830Y102500D01*
X208081Y87500D02*
X205579Y87500D01*
X191830Y101249D01*
X237109Y42220D02*
X236830Y42498D01*
X191830Y31711D02*
X206042Y17499D01*
X236830Y17499D03*
X237109Y42220D03*
X236830Y17499D02*
X206042Y17499D01*
X209888Y93125D02*
X201830Y101182D01*
X201830Y101182D01*
X191830Y32500D02*
X191830Y31711D01*
X210388Y93125D02*
X236830Y66682D01*
X209888Y93125D02*
X210388Y93125D01*
X201830Y101182D02*
X201830Y102500D01*
X236830Y66682D02*
X236830Y42498D01*
X181830Y32500D02*
X181830Y31640D01*
X269330Y170000D02*
X249330Y170000D01*
X186024Y265000D02*
X236830Y265000D01*
X176867Y255842D02*
X186024Y265000D01*
X249330Y200000D02*
X249330Y217500D01*
X251830Y220000D01*
X306830Y247500D02*
X306830Y244056D01*
X325821Y225065D01*
X314330Y247500D02*
X315160Y247500D01*
X334484Y228175D01*
X334484Y221955D01*
X330900Y218371D02*
X334484Y221955D01*
X301751Y224193D02*
X298168Y220610D01*
X305058Y207500D02*
X321831Y207500D01*
X331830Y197501D01*
X331830Y193227D01*
X336751Y188306D01*
X352714Y188306D01*
X392538Y228130D01*
X432449Y228130D01*
X443080Y217500D01*
X298168Y220610D02*
X298168Y214389D01*
X305058Y207500D01*
X319708Y218371D02*
X330900Y218371D01*
X313886Y224193D02*
X319708Y218371D01*
X313886Y224193D02*
X301751Y224193D01*
G54D26*
X276830Y217500D02*
X299330Y240000D01*
X299330Y247500D02*
X299330Y240000D01*
G54D27*
X321830Y32500D02*
X221830Y32500D01*
X361620Y242500D02*
X361386Y242734D01*
X349565Y242734D01*
X381830Y242500D02*
X361620Y242500D01*
X321830Y32500D02*
X329929Y40598D01*
X219734Y222241D02*
X223001Y222241D01*
X234330Y210912D01*
X234330Y200935D01*
X254016Y181250D02*
X234330Y200935D01*
X254016Y181250D02*
X301830Y181250D01*
X310722Y160342D02*
X306830Y164234D01*
X301830Y181250D02*
X306830Y176250D01*
X306830Y164234D02*
X306830Y176250D01*
X318080Y181250D02*
X324774Y174556D01*
X392636Y174556D01*
X404330Y186250D01*
X301830Y181250D02*
X318080Y181250D01*
X311830Y187500D01*
X311830Y195000D01*
X382256Y266630D02*
X263937Y266630D01*
X251830Y254523D01*
X251830Y250830D01*
X419279Y89840D02*
X419119Y90000D01*
X382256Y266630D02*
X382637Y266250D01*
X434979Y90000D02*
X483729Y138750D01*
X434979Y90000D02*
X419119Y90000D01*
X484155Y236601D02*
X484155Y138925D01*
X484155Y236601D02*
X454506Y266250D01*
X382637Y266250D01*
X484155Y138925D02*
X484330Y138750D01*
X483729Y138750D02*
X484330Y138750D01*
G54D28*
X39330Y72500D03*
X141830Y72500D03*
G54D29*
X236830Y265000D03*
G54D30*
X299330Y247500D03*
X306830Y247500D03*
X314330Y247500D03*
G54D31*
X269929Y46892D03*
X339929Y116892D03*
X279929Y46892D03*
X329929Y116892D03*
X289929Y46892D03*
X319929Y116892D03*
X299929Y46892D03*
X309929Y116892D03*
X309929Y46892D03*
X299929Y116892D03*
X319929Y46892D03*
X289929Y116892D03*
X329929Y46892D03*
X279929Y116892D03*
X339929Y46892D03*
X269929Y116892D03*
G54D32*
X151830Y43750D03*
G54D33*
X369330Y21250D03*
X369330Y31250D03*
G54D34*
X39330Y145000D03*
X49330Y145000D03*
X39330Y120000D03*
X49330Y120000D03*
X161830Y32500D03*
X171830Y32500D03*
X181830Y32500D03*
X191830Y32500D03*
X201830Y32500D03*
X211830Y32500D03*
X221830Y32500D03*
G54D35*
X252077Y250056D03*
X261920Y250056D03*
X271762Y250056D03*
X281605Y250056D03*
G54D36*
X144330Y145000D03*
X174330Y145000D03*
X144330Y127500D03*
X174330Y127500D03*
X276830Y217500D03*
X306830Y217500D03*
X325821Y225065D03*
X355821Y225065D03*
X311830Y195000D03*
X341830Y195000D03*
G54D37*
X381830Y252500D03*
X381830Y242500D03*
X349330Y252500D03*
X349330Y242500D03*
G54D38*
X419279Y89840D03*
X419279Y99682D03*
G54D39*
X414641Y62501D03*
X404798Y62501D03*
G54D40*
X249330Y200000D03*
X249330Y170000D03*
G54D41*
X269330Y170000D03*
X269330Y200000D03*
G54D42*
X251830Y220000D03*
G54D43*
X310722Y160342D03*
X449330Y140000D03*
X426830Y140000D03*
X454330Y186250D03*
X404330Y186250D03*
G54D44*
X403080Y217500D03*
X423080Y217500D03*
X443080Y217500D03*
X463080Y217500D03*
G54D45*
X49330Y72500D03*
X59330Y72500D03*
X69330Y72500D03*
X79330Y72500D03*
X89330Y72500D03*
X99330Y72500D03*
X109330Y72500D03*
X109330Y102500D03*
X99330Y102500D03*
X89330Y102500D03*
X79330Y102500D03*
X69330Y102500D03*
X59330Y102500D03*
X49330Y102500D03*
X39330Y102500D03*
X151830Y72500D03*
X161830Y72500D03*
X171830Y72500D03*
X181830Y72500D03*
X191830Y72500D03*
X201830Y72500D03*
X211830Y72500D03*
X211830Y102500D03*
X201830Y102500D03*
X191830Y102500D03*
X181830Y102500D03*
X171830Y102500D03*
X161830Y102500D03*
X151830Y102500D03*
X141830Y102500D03*
G54D46*
X176867Y255842D03*
X166867Y255842D03*
X156867Y255842D03*
X146867Y255842D03*
X136867Y255842D03*
X126867Y255842D03*
X116867Y255842D03*
X106867Y255842D03*
X96867Y255842D03*
X86867Y255842D03*
X76867Y255842D03*
X66867Y255842D03*
X56867Y255842D03*
X46867Y255842D03*
X36867Y255842D03*
X176867Y165842D03*
X166867Y165842D03*
X156867Y165842D03*
X146867Y165842D03*
X136867Y165842D03*
X126867Y165842D03*
X116867Y165842D03*
X106867Y165842D03*
X96867Y165842D03*
X86867Y165842D03*
X76867Y165842D03*
X66867Y165842D03*
X56867Y165842D03*
X46867Y165842D03*
X36867Y165842D03*
G54D47*
X58468Y33798D03*
X68468Y33798D03*
X78468Y33798D03*
X88468Y33798D03*
X98468Y33798D03*
X108468Y33798D03*
X118468Y33798D03*
X128468Y33798D03*
G54D48*
X219330Y231614D03*
X219330Y221614D03*
X219330Y211614D03*
X219330Y201614D03*
X219330Y191614D03*
X219330Y181614D03*
X219330Y171614D03*
X219330Y161614D03*
G54D49*
X29330Y145000D03*
X29330Y120000D03*
X151830Y32500D03*
M02*
