%FSLAX35Y35*%
%MOIN*%
G04 2=Kupferunten/CopperbottomL2(X.Bot)*
%ADD10C,0.00394*%
%ADD11C,0.00154*%
%ADD12C,0.00336*%
%ADD13C,0.00409*%
%ADD14C,0.00512*%
%ADD15C,0.00614*%
%ADD16C,0.00768*%
%ADD17C,0.00787*%
%ADD18C,0.00800*%
%ADD19C,0.00819*%
%ADD20C,0.01024*%
%ADD21C,0.01181*%
%ADD22C,0.03937*%
%ADD23C,0.05906*%
%ADD24C,0.07874*%
%AMR_25*21,1,0.05906,0.11811,0,0,0.000*%
%ADD25R_25*%
%AMR_26*21,1,0.07874,0.09843,0,0,270.000*%
%ADD26R_26*%
%AMOCT_27*4,1,8,0.023622,0.011811,0.011811,0.023622,-0.011811,0.023622,-0.023622,0.011811,-0.023622,-0.011811,-0.011811,-0.023622,0.011811,-0.023622,0.023622,-0.011811,0.023622,0.011811,0.000*%
%ADD27OCT_27*%
%AMOCT_28*4,1,8,0.027559,0.025591,0.013780,0.039370,-0.013780,0.039370,-0.027559,0.025591,-0.027559,-0.025591,-0.013780,-0.039370,0.013780,-0.039370,0.027559,-0.025591,0.027559,0.025591,0.000*%
%ADD28OCT_28*%
%AMOCT_29*4,1,8,0.029528,0.044291,0.014764,0.059055,-0.014764,0.059055,-0.029528,0.044291,-0.029528,-0.044291,-0.014764,-0.059055,0.014764,-0.059055,0.029528,-0.044291,0.029528,0.044291,0.000*%
%ADD29OCT_29*%
%AMOCT_30*4,1,8,0.039370,0.029528,0.019685,0.049213,-0.019685,0.049213,-0.039370,0.029528,-0.039370,-0.029528,-0.019685,-0.049213,0.019685,-0.049213,0.039370,-0.029528,0.039370,0.029528,0.000*%
%ADD30OCT_30*%
%AMOCT_31*4,1,8,0.039370,0.029528,0.019685,0.049213,-0.019685,0.049213,-0.039370,0.029528,-0.039370,-0.029528,-0.019685,-0.049213,0.019685,-0.049213,0.039370,-0.029528,0.039370,0.029528,90.000*%
%ADD31OCT_31*%
%AMOCT_32*4,1,8,0.039370,0.029528,0.019685,0.049213,-0.019685,0.049213,-0.039370,0.029528,-0.039370,-0.029528,-0.019685,-0.049213,0.019685,-0.049213,0.039370,-0.029528,0.039370,0.029528,270.000*%
%ADD32OCT_32*%
%AMOCT_33*4,1,8,0.039370,0.039370,0.019685,0.059055,-0.019685,0.059055,-0.039370,0.039370,-0.039370,-0.039370,-0.019685,-0.059055,0.019685,-0.059055,0.039370,-0.039370,0.039370,0.039370,0.000*%
%ADD33OCT_33*%
%AMOCT_34*4,1,8,0.039370,0.039370,0.019685,0.059055,-0.019685,0.059055,-0.039370,0.039370,-0.039370,-0.039370,-0.019685,-0.059055,0.019685,-0.059055,0.039370,-0.039370,0.039370,0.039370,90.000*%
%ADD34OCT_34*%
%AMOCT_35*4,1,8,0.039370,0.039370,0.019685,0.059055,-0.019685,0.059055,-0.039370,0.039370,-0.039370,-0.039370,-0.019685,-0.059055,0.019685,-0.059055,0.039370,-0.039370,0.039370,0.039370,270.000*%
%ADD35OCT_35*%
%AMOCT_36*4,1,8,0.049213,0.024606,0.024606,0.049213,-0.024606,0.049213,-0.049213,0.024606,-0.049213,-0.024606,-0.024606,-0.049213,0.024606,-0.049213,0.049213,-0.024606,0.049213,0.024606,0.000*%
%ADD36OCT_36*%
%AMOCT_37*4,1,8,0.049213,0.024606,0.024606,0.049213,-0.024606,0.049213,-0.049213,0.024606,-0.049213,-0.024606,-0.024606,-0.049213,0.024606,-0.049213,0.049213,-0.024606,0.049213,0.024606,180.000*%
%ADD37OCT_37*%
%AMOCT_38*4,1,8,0.059055,0.029528,0.029528,0.059055,-0.029528,0.059055,-0.059055,0.029528,-0.059055,-0.029528,-0.029528,-0.059055,0.029528,-0.059055,0.059055,-0.029528,0.059055,0.029528,0.000*%
%ADD38OCT_38*%
%AMOCT_39*4,1,8,0.059055,0.029528,0.029528,0.059055,-0.029528,0.059055,-0.059055,0.029528,-0.059055,-0.029528,-0.029528,-0.059055,0.029528,-0.059055,0.059055,-0.029528,0.059055,0.029528,180.000*%
%ADD39OCT_39*%
%ADD40O,0.05906X0.11811*%
%ADD41O,0.07874X0.11811*%
%AMRR_42*21,1,0.07874,0.08268,0,0,0.000*21,1,0.06299,0.09843,0,0,0.000*1,1,0.01575,0.03150,0.04134*1,1,0.01575,-0.03150,-0.04134*1,1,0.01575,0.03150,-0.04134*1,1,0.01575,-0.03150,0.04134*%
%ADD42RR_42*%
%AMRR_43*21,1,0.07874,0.08268,0,0,90.000*21,1,0.06299,0.09843,0,0,90.000*1,1,0.01575,-0.04134,0.03150*1,1,0.01575,0.04134,-0.03150*1,1,0.01575,0.04134,0.03150*1,1,0.01575,-0.04134,-0.03150*%
%ADD43RR_43*%
G54D22*
X151830Y69671D02*
X145993Y63834D01*
X59330Y73817D02*
X66765Y81252D01*
X109330Y72500D02*
X117996Y63834D01*
X109330Y73773D02*
X101851Y81252D01*
X145993Y63834D02*
X117996Y63834D01*
X66765Y81252D02*
X101851Y81252D01*
X151830Y69671D02*
X151830Y72500D01*
X59330Y73817D02*
X59330Y72500D01*
X109330Y72500D02*
X109330Y73773D01*
X46867Y255842D02*
X46867Y258627D01*
X65028Y199746D02*
X87523Y222241D01*
X53543Y130000D02*
X48542Y130000D01*
X31836Y199746D03*
X197234Y222241D03*
X87523Y222241D02*
X219734Y222241D01*
X53543Y130000D02*
X136830Y130000D01*
X141830Y72500D02*
X141830Y102500D01*
X39330Y120000D02*
X39330Y120788D01*
X53543Y130000D02*
X136830Y130000D01*
X139330Y127500D01*
X48542Y130000D02*
X39330Y120788D01*
X139330Y127500D02*
X144330Y127500D01*
X31836Y199746D02*
X65028Y199746D01*
X407974Y66599D02*
X338355Y66599D01*
X319929Y48173D01*
X319929Y46892D01*
X339929Y46892D02*
X340536Y47500D01*
X406830Y47500D01*
X417344Y58013D01*
X417344Y66599D01*
X22319Y139221D02*
X24244Y137296D01*
X34417Y137296D02*
X24244Y137296D01*
X143622Y50350D02*
X136151Y57820D01*
X143622Y27951D02*
X158995Y12577D01*
X241752Y15669D02*
X238660Y12577D01*
X39330Y142209D02*
X34417Y137296D01*
X136608Y57937D03*
X143622Y50350D02*
X143622Y27951D01*
X22319Y139221D02*
X22319Y183129D01*
X241752Y18716D02*
X241752Y15669D01*
X39330Y145000D02*
X39330Y142209D01*
X158995Y12577D02*
X238660Y12577D01*
X21830Y183617D02*
X21830Y235000D01*
X21830Y183617D02*
X22319Y183129D01*
X21830Y235000D02*
X36867Y250036D01*
X36867Y255842D01*
X269929Y46892D02*
X241752Y18716D01*
X130648Y125000D02*
X151830Y103817D01*
X174330Y127500D02*
X151830Y105000D01*
X174330Y127500D02*
X146867Y154963D01*
X146867Y164144D01*
X151830Y105000D02*
X151830Y103817D01*
X151830Y102500D01*
X151830Y103817D02*
X151830Y102500D01*
X146867Y165842D02*
X146867Y164144D01*
X49330Y102500D02*
X49330Y107500D01*
X48730Y107500D02*
X49330Y107500D01*
X66230Y125000D02*
X48730Y107500D01*
X66230Y125000D02*
X130648Y125000D01*
X106830Y119724D02*
X75524Y119724D01*
X106830Y119724D03*
X106830Y119724D01*
X59330Y102500D02*
X59330Y103530D01*
X75524Y119724D02*
X59330Y103530D01*
X59330Y42500D02*
X69330Y52500D01*
X69330Y72500D02*
X69330Y52500D01*
X59330Y32500D02*
X59330Y42500D01*
X69330Y41594D02*
X75236Y47500D01*
X75236Y63444D02*
X75236Y47500D01*
X69330Y32500D02*
X69330Y41594D01*
X75236Y63444D02*
X79330Y67539D01*
X79330Y72500D01*
X79330Y40188D02*
X89330Y50188D01*
X89330Y55275D01*
X89330Y72500D02*
X89330Y55275D01*
X79330Y32500D02*
X79330Y40188D01*
X89330Y39913D02*
X95236Y45818D01*
X95236Y63444D02*
X95236Y45818D01*
X89330Y32500D02*
X89330Y39913D01*
X95236Y63444D02*
X99330Y67539D01*
X99330Y72500D01*
X99330Y32500D02*
X99330Y31669D01*
X113228Y86279D02*
X121830Y77677D01*
X89330Y101232D02*
X104283Y86279D01*
X121830Y77677D03*
X113228Y86279D02*
X104283Y86279D01*
X89330Y102500D02*
X89330Y101232D01*
X47518Y93444D02*
X33621Y79547D01*
X71593Y93444D02*
X79330Y101182D01*
X47518Y93444D02*
X71593Y93444D01*
X79330Y101182D02*
X79330Y101182D01*
X129330Y32500D02*
X129330Y33330D01*
X34330Y44743D02*
X34330Y50000D01*
X34330Y44743D02*
X54251Y24822D01*
X122441Y24822D01*
X129330Y31711D02*
X129330Y33330D01*
X79330Y101182D02*
X79330Y102500D01*
X122441Y24822D02*
X129330Y31711D01*
X34330Y50000D02*
X33621Y50709D01*
X33621Y79547D01*
X34212Y264701D02*
X17220Y247710D01*
X219992Y212500D02*
X220781Y212500D01*
X219992Y212500D02*
X219734Y212241D01*
X231752Y223471D02*
X220781Y212500D01*
X231752Y223471D02*
X231752Y257038D01*
X224090Y264701D01*
X34212Y264701D01*
X22286Y132571D02*
X44401Y132571D01*
X46830Y135000D02*
X44401Y132571D01*
X46830Y135000D02*
X77538Y135000D01*
X106867Y164328D01*
X106867Y165842D01*
X17220Y137637D02*
X22286Y132571D01*
X17220Y137637D02*
X17220Y181546D01*
X17106Y181660D01*
X17106Y236956D01*
X17220Y237071D01*
X17220Y247710D01*
X219734Y202241D02*
X214258Y202241D01*
X136867Y165842D02*
X136867Y167546D01*
X189516Y177241D02*
X187266Y179492D01*
X76867Y167541D02*
X88817Y179492D01*
X187266Y179492D02*
X88817Y179492D01*
X213248Y177241D02*
X189516Y177241D01*
X76867Y165842D02*
X76867Y167541D01*
X213248Y177241D02*
X218248Y172241D01*
X219734Y172241D01*
X345638Y122463D02*
X317117Y150985D01*
X168158Y153036D02*
X156867Y164328D01*
X196830Y152500D02*
X196293Y153036D01*
X156867Y165842D02*
X156867Y164328D01*
X205845Y150985D02*
X204330Y152500D01*
X196293Y153036D02*
X168158Y153036D01*
X204330Y152500D02*
X196830Y152500D01*
X317117Y150985D02*
X205845Y150985D01*
X345638Y111321D02*
X345638Y122463D01*
X345638Y111321D02*
X338155Y103838D01*
X335594Y103838D01*
X279929Y48173D01*
X279929Y46892D01*
X281830Y249197D02*
X274940Y242307D01*
X251830Y249212D02*
X258736Y242307D01*
X274940Y242307D01*
X281830Y250000D02*
X281830Y249197D01*
X251830Y250000D02*
X251830Y249212D01*
X274992Y234999D02*
X272234Y232241D01*
X272234Y232241D03*
X274992Y234999D02*
X314330Y234999D01*
X314330Y247500D01*
X171830Y72500D02*
X171830Y73750D01*
X321578Y260000D02*
X321578Y260000D01*
X9330Y127243D02*
X24251Y112322D01*
X381830Y252500D02*
X374330Y260000D01*
X261830Y250806D02*
X271024Y260000D01*
X49330Y119175D02*
X42476Y112322D01*
X9330Y192929D02*
X9330Y127243D01*
X271024Y260000D02*
X321578Y260000D01*
X374330Y260000D01*
X24251Y112322D02*
X42476Y112322D01*
X261830Y250000D02*
X261830Y250806D01*
X49330Y120000D02*
X49330Y119175D01*
X9330Y192929D02*
X9330Y247500D01*
X9330Y192929D02*
X9330Y192929D01*
X9330Y247500D02*
X34330Y272500D01*
X251830Y272500D01*
X261830Y262500D02*
X251830Y272500D01*
X261830Y262500D02*
X261830Y250000D01*
X151830Y37500D02*
X181830Y67500D01*
X181830Y72500D02*
X181830Y67500D01*
X151830Y32500D02*
X151830Y37500D01*
X161830Y35000D02*
X191830Y64999D01*
X191830Y70040D02*
X191830Y64999D01*
X191830Y70040D02*
X191830Y72500D01*
X161830Y32500D02*
X161830Y35000D01*
X171830Y32500D02*
X171830Y33359D01*
X264174Y133563D02*
X263990Y133747D01*
X241797Y133809D02*
X241859Y133747D01*
X181830Y103750D02*
X211889Y133809D01*
X264174Y133563D03*
X211889Y133809D02*
X241797Y133809D01*
X181830Y103750D02*
X181830Y102500D01*
X263990Y133747D02*
X241859Y133747D01*
X191830Y102500D02*
X191830Y103828D01*
X236830Y17499D03*
X237109Y42220D03*
X236830Y17499D02*
X236830Y41941D01*
X237109Y42220D01*
X229330Y102066D02*
X229330Y29211D01*
X229330Y102066D02*
X228897Y102500D01*
X188720Y24822D02*
X181830Y31711D01*
X224941Y24822D02*
X188720Y24822D01*
X181830Y31711D02*
X181830Y32500D01*
X229330Y29211D02*
X224941Y24822D01*
X211830Y102500D02*
X228897Y102500D01*
X239330Y262500D02*
X236830Y265000D01*
X239330Y180000D02*
X249330Y170000D01*
X239330Y262500D02*
X239330Y180000D01*
G54D24*
X337311Y30730D02*
X406743Y30730D01*
X221830Y32500D02*
X221830Y43562D01*
X211830Y53562D02*
X221830Y43562D01*
X381830Y195000D02*
X381830Y242500D01*
X211830Y72500D02*
X211830Y53562D01*
X376012Y189181D02*
X381830Y195000D01*
X376012Y91681D02*
X376012Y189181D01*
X376012Y91681D02*
X393900Y109569D01*
X427838Y109569D01*
X337311Y30730D02*
X329929Y38112D01*
X389668Y78025D02*
X376012Y91681D01*
X426538Y74178D02*
X422691Y78025D01*
X329929Y38112D02*
X329929Y46892D01*
X422691Y78025D02*
X389668Y78025D01*
X426538Y74178D02*
X426538Y50524D01*
X406743Y30730D02*
X426538Y50524D01*
X427838Y109569D02*
X427838Y146008D01*
X449330Y167500D01*
X376012Y189181D02*
X369330Y182500D01*
X301830Y182500D01*
X276830Y207500D01*
X276830Y217500D01*
X269929Y46892D02*
X269929Y21901D01*
X271830Y20000D01*
X419330Y20000D01*
X449330Y50000D01*
X449330Y140000D01*
G54D25*
X39330Y72500D03*
X141830Y72500D03*
G54D26*
X219734Y232241D03*
G54D27*
X236830Y265000D03*
G54D28*
X299330Y247500D03*
X306830Y247500D03*
X314330Y247500D03*
G54D29*
X269929Y46892D03*
X339929Y116892D03*
X279929Y46892D03*
X329929Y116892D03*
X289929Y46892D03*
X319929Y116892D03*
X299929Y46892D03*
X309929Y116892D03*
X309929Y46892D03*
X299929Y116892D03*
X319929Y46892D03*
X289929Y116892D03*
X329929Y46892D03*
X279929Y116892D03*
X339929Y46892D03*
X269929Y116892D03*
G54D30*
X69330Y32500D03*
X79330Y32500D03*
X89330Y32500D03*
X99330Y32500D03*
X109330Y32500D03*
X119330Y32500D03*
X129330Y32500D03*
X261830Y250000D03*
X271830Y250000D03*
X281830Y250000D03*
X39330Y145000D03*
X49330Y145000D03*
X39330Y120000D03*
X49330Y120000D03*
X161830Y32500D03*
X171830Y32500D03*
X181830Y32500D03*
X191830Y32500D03*
X201830Y32500D03*
X211830Y32500D03*
X221830Y32500D03*
G54D31*
X427838Y109569D03*
G54D32*
X219734Y222241D03*
X219734Y212241D03*
X219734Y202241D03*
X219734Y192241D03*
X219734Y182241D03*
X219734Y172241D03*
X219734Y162241D03*
G54D33*
X407974Y66599D03*
X417344Y66599D03*
G54D34*
X144330Y145000D03*
X174330Y145000D03*
X144330Y127500D03*
X174330Y127500D03*
X276830Y217500D03*
X306830Y217500D03*
X324459Y217489D03*
X354459Y217489D03*
X311830Y195000D03*
X341830Y195000D03*
G54D35*
X381830Y252500D03*
X381830Y242500D03*
X349330Y252500D03*
X349330Y242500D03*
G54D36*
X249330Y200000D03*
X249330Y170000D03*
G54D37*
X269330Y170000D03*
X269330Y200000D03*
G54D38*
X251830Y220000D03*
G54D39*
X309330Y170000D03*
X449330Y140000D03*
X449330Y167500D03*
G54D40*
X49330Y72500D03*
X59330Y72500D03*
X69330Y72500D03*
X79330Y72500D03*
X89330Y72500D03*
X99330Y72500D03*
X109330Y72500D03*
X109330Y102500D03*
X99330Y102500D03*
X89330Y102500D03*
X79330Y102500D03*
X69330Y102500D03*
X59330Y102500D03*
X49330Y102500D03*
X39330Y102500D03*
X151830Y72500D03*
X161830Y72500D03*
X171830Y72500D03*
X181830Y72500D03*
X191830Y72500D03*
X201830Y72500D03*
X211830Y72500D03*
X211830Y102500D03*
X201830Y102500D03*
X191830Y102500D03*
X181830Y102500D03*
X171830Y102500D03*
X161830Y102500D03*
X151830Y102500D03*
X141830Y102500D03*
G54D41*
X176867Y255842D03*
X166867Y255842D03*
X156867Y255842D03*
X146867Y255842D03*
X136867Y255842D03*
X126867Y255842D03*
X116867Y255842D03*
X106867Y255842D03*
X96867Y255842D03*
X86867Y255842D03*
X76867Y255842D03*
X66867Y255842D03*
X56867Y255842D03*
X46867Y255842D03*
X36867Y255842D03*
X176867Y165842D03*
X166867Y165842D03*
X156867Y165842D03*
X146867Y165842D03*
X136867Y165842D03*
X126867Y165842D03*
X116867Y165842D03*
X106867Y165842D03*
X96867Y165842D03*
X86867Y165842D03*
X76867Y165842D03*
X66867Y165842D03*
X56867Y165842D03*
X46867Y165842D03*
X36867Y165842D03*
G54D42*
X59330Y32500D03*
X251830Y250000D03*
X29330Y145000D03*
X29330Y120000D03*
X151830Y32500D03*
G54D43*
X427838Y99569D03*
M02*
